# xmcd
#
# Track frame offsets:
#	150
#	7005
#	13667
#	31639
#	45247
#	60222
#	75672
#	90387
#	106194
#	120104
#	138247
#	156529
#	174167
#
# Disc length: 2543 seconds
#
# Revision: 0
# Processed by: cddbd v1.5.2PL0 Copyright (c) Steve Scherf et al.
# Submitted via: dBpowerAMP V4.0
#
DISCID=8109ed0d
DTITLE=Toby Keith - Unleashed
DYEAR=1900
DGENRE=Country
TTITLE0=01.Live Introduction By Toby Of `Courtesy Of The Red, White And Blue´
TTITLE1=02.The Angry American
TTITLE2=03.Who´s Your Daddy
TTITLE3=04.Good To Go To Mexico
TTITLE4=05.It´s All Good
TTITLE5=06.Beer For My Horses(With Willie Nelson)
TTITLE6=07.Losing My Touch
TTITLE7=08.Huckleberry
TTITLE8=09.It Works For Me
TTITLE9=10.Ain´t It Just Like You
TTITLE10=11.Rock You Baby
TTITLE11=12.Rodeo Moon
TTITLE12=13.That´s Not How It Is
EXTD=
EXTT0=
EXTT1=
EXTT2=
EXTT3=
EXTT4=
EXTT5=
EXTT6=
EXTT7=
EXTT8=
EXTT9=
EXTT10=
EXTT11=
EXTT12=
PLAYORDER=
